<?xml version="1.0" encoding="UTF-8"?>
<svg width="128" height="128" viewBox="0 0 128 128" fill="none" xmlns="http://www.w3.org/2000/svg">
  <rect width="128" height="128" rx="64" fill="#F3F4F6"/>
  <path d="M64 32C45.2 32 30 47.2 30 66C30 84.8 45.2 100 64 100C82.8 100 98 84.8 98 66C98 47.2 82.8 32 64 32ZM64 92C49.6 92 38 80.4 38 66C38 51.6 49.6 40 64 40C78.4 40 90 51.6 90 66C90 80.4 78.4 92 64 92Z" fill="#9CA3AF"/>
  <path d="M64 48C55.2 48 48 55.2 48 64C48 72.8 55.2 80 64 80C72.8 80 80 72.8 80 64C80 55.2 72.8 48 64 48ZM64 72C58.5 72 54 67.5 54 62C54 56.5 58.5 52 64 52C69.5 52 74 56.5 74 62C74 67.5 69.5 72 64 72Z" fill="#9CA3AF"/>
</svg> 